<svg xmlns="http://www.w3.org/2000/svg" width="3000" height="3000" fill="none" viewBox="0 0 3000 3000" id="male-chef-cooking-in-kitchen">
  <path fill="#F3E8C9" d="M554.866 1372.99C130.466 1663.79 524.033 2350.16 722.366 2463.5C777.366 2681.99 2145.37 2691.99 2298.87 2463.5C2494.87 2246.5 2875.37 1576.25 2468.37 1372.99C2352.14 1314.95 2584.87 873.995 2404.37 452.495C2223.87 30.9946 1085.37 1009.49 554.866 1372.99Z"></path>
  <path fill="#D1C39B" d="M1259.87 1152.99H1935.87V1179.99H1259.87V1152.99ZM1259.87 1482.99H1935.87V1509.99H1259.87V1482.99Z"></path>
  <path fill="#DDD0AC" d="M1727.6 984.706H1879.58V1132.57C1879.58 1143.62 1870.63 1152.57 1859.58 1152.57H1747.6C1736.55 1152.57 1727.6 1143.62 1727.6 1132.57V984.706ZM1787.71 943.874C1787.71 935.104 1794.82 927.994 1803.59 927.994V927.994C1812.36 927.994 1819.47 935.104 1819.47 943.874V959.753H1787.71V943.874Z"></path>
  <path fill="#DDD0AC" d="M1712.85 964.752C1712.85 961.991 1715.09 959.752 1717.85 959.752H1889.33C1892.09 959.752 1894.33 961.991 1894.33 964.752V979.705C1894.33 982.467 1892.09 984.705 1889.33 984.705H1717.85C1715.09 984.705 1712.85 982.467 1712.85 979.705V964.752ZM1521.17 984.706H1673.15V1132.57C1673.15 1143.62 1664.2 1152.57 1653.15 1152.57H1541.17C1530.12 1152.57 1521.17 1143.62 1521.17 1132.57V984.706ZM1581.28 943.874C1581.28 935.104 1588.39 927.994 1597.16 927.994V927.994C1605.93 927.994 1613.04 935.104 1613.04 943.874V959.753H1581.28V943.874Z"></path>
  <path fill="#DDD0AC" d="M1506.42 964.752C1506.42 961.991 1508.66 959.752 1511.42 959.752H1682.9C1685.66 959.752 1687.9 961.991 1687.9 964.752V979.705C1687.9 982.467 1685.66 984.705 1682.9 984.705H1511.42C1508.66 984.705 1506.42 982.467 1506.42 979.705V964.752ZM1521.17 1314.66H1673.15V1462.52C1673.15 1473.57 1664.2 1482.52 1653.15 1482.52H1541.17C1530.12 1482.52 1521.17 1473.57 1521.17 1462.52V1314.66ZM1581.28 1273.82C1581.28 1265.05 1588.39 1257.94 1597.16 1257.94V1257.94C1605.93 1257.94 1613.04 1265.05 1613.04 1273.82V1289.7H1581.28V1273.82ZM1506.42 1294.7C1506.42 1291.94 1508.66 1289.7 1511.42 1289.7H1682.9C1685.66 1289.7 1687.9 1291.94 1687.9 1294.7V1309.66C1687.9 1312.42 1685.66 1314.66 1682.9 1314.66H1511.42C1508.66 1314.66 1506.42 1312.42 1506.42 1309.66V1294.7ZM1314.74 984.706H1466.72V1132.57C1466.72 1143.62 1457.77 1152.57 1446.72 1152.57H1334.74C1323.69 1152.57 1314.74 1143.62 1314.74 1132.57V984.706ZM1374.85 943.874C1374.85 935.104 1381.96 927.994 1390.73 927.994V927.994C1399.5 927.994 1406.61 935.104 1406.61 943.874V959.753H1374.85V943.874Z"></path>
  <path fill="#DDD0AC" d="M1299.99 964.752C1299.99 961.991 1302.23 959.752 1304.99 959.752H1476.47C1479.23 959.752 1481.47 961.991 1481.47 964.752V979.705C1481.47 982.467 1479.23 984.705 1476.47 984.705H1304.99C1302.23 984.705 1299.99 982.467 1299.99 979.705V964.752Z"></path>
  <path fill="#D1C39B" d="M1024.87 2273.99H1658.87V2486.99H1024.87V2273.99Z"></path>
  <path fill="#FFD557" d="M1653.87 1963.49L2514.87 1771.99C2521.87 1741.49 2404.52 1627.54 2333.87 1536.49C2306.87 1480.49 2118.53 1408.83 2044.37 1405.99L1914.37 1399.99C1852.53 1420.99 1722.27 1467.19 1695.87 1483.99C1662.87 1504.99 1568.87 1726.99 1559.37 1746.49C1551.77 1762.09 1511.87 1781.66 1492.87 1789.49C1470.07 1787.89 1451.37 1821.83 1444.87 1838.99L1622.87 1955.49L1653.87 1963.49Z"></path>
  <path fill="#646A28" d="M2291.37 2299.49L2298.87 1854.49C2247.03 1799.49 2139.57 1686.39 2124.37 1673.99C2105.37 1658.49 2158.37 1465.99 2164.37 1443.99C2170.37 1421.99 2143.37 1414.99 2121.87 1414.99C2100.37 1414.99 2067.37 1563.99 2054.87 1618.99C2042.37 1673.99 1828.37 1669.99 1798.37 1650.49C1768.37 1630.99 1876.87 1424.49 1870.87 1418.99C1864.87 1413.49 1852.87 1414.49 1828.37 1420.49C1803.87 1426.49 1756.37 1545.99 1744.87 1613.99C1733.37 1681.99 1682.37 1715.99 1662.87 1743.99C1647.27 1766.39 1665.03 1798.33 1675.87 1811.49C1621.34 2137.89 1640.04 2296.26 1630.87 2599.99L2291.37 2593.49C2285.2 2548.66 2276.57 2445.09 2291.37 2389.49C2306.17 2333.89 2297.53 2306.33 2291.37 2299.49Z"></path>
  <path fill="#C4C4C4" d="M1032.81 2306.52V2267.19C1054.82 2254.56 1064.46 2253.63 1078.34 2259.5V2288.48C1069.14 2286.82 1044.16 2299.81 1032.81 2306.52Z"></path>
  <path fill="#121212" d="M1109.87 2277.24C1109.87 2290.47 1100.79 2301.19 1089.6 2301.19C1078.41 2301.19 1069.34 2290.47 1069.34 2277.24C1069.34 2264.02 1078.41 2253.29 1089.6 2253.29C1100.79 2253.29 1109.87 2264.02 1109.87 2277.24Z"></path>
  <path fill="#C4C4C4" d="M403.636 2270.74C425.305 2273.87 437.93 2279.67 461.175 2297.05L458.423 2335.49C435.931 2316.04 423.188 2311.63 400.384 2307.4L403.636 2270.74Z"></path>
  <path fill="#121212" d="M415.394 2287.3C415.394 2300.52 406.321 2311.25 395.13 2311.25C383.939 2311.25 374.866 2300.52 374.866 2287.3C374.866 2274.07 383.939 2263.35 395.13 2263.35C406.321 2263.35 415.394 2274.07 415.394 2287.3Z"></path>
  <path fill="url(#paint0_linear_192_1963)" d="M457.805 2274.64L1032.33 2270.99C1034.93 2401.45 1028.31 2458.75 1008.56 2570.9C1003.12 2601.76 839.737 2592.78 735.734 2592.78C634.799 2587.17 552.352 2587.73 475.402 2587.73C452.151 2571.63 448.054 2379.83 457.805 2274.64Z"></path>
  <path fill="#fff" d="M1047.82 2269.26C1047.82 2310.41 907.077 2323.37 740.865 2323.37C574.652 2323.37 445.914 2310.41 445.914 2269.26C445.914 2228.11 580.656 2194.75 746.869 2194.75C913.082 2194.75 1047.82 2228.11 1047.82 2269.26Z"></path>
  <path fill="#fff" d="M1019.55 2240.28C1019.55 2280.13 889.064 2277.54 741.366 2277.54C593.667 2277.54 473.684 2283.09 473.684 2243.24C473.684 2203.4 593.667 2133.25 741.366 2133.25C889.064 2133.25 1019.55 2200.44 1019.55 2240.28Z"></path>
  <path fill="#121212" d="M774.638 2117.28C774.638 2129.04 757.277 2138.57 735.862 2138.57C714.446 2138.57 697.085 2129.04 697.085 2117.28C697.085 2105.53 714.446 2095.99 735.862 2095.99C757.277 2095.99 774.638 2105.53 774.638 2117.28Z"></path>
  <path fill="#FFA07F" d="M2330.37 1749.99L2228.37 1800.99C2181.37 1798.49 2143.87 1813.47 2087.87 1816.49C2069.37 1817.49 2059.37 1868.48 2004.87 1876.49C1965.37 1882.3 2012.37 1924.99 2050.87 1902.99C2045.53 1910.99 2038.97 1939.09 2055.37 1987.49C2075.87 2047.99 2099.37 1998.99 2110.87 1988.49C2122.37 1977.99 2143.87 2006.49 2154.37 1988.49C2162.77 1974.09 2171.53 1972.16 2174.87 1972.99C2235.87 1973.99 2215.37 1950.49 2231.87 1953.49C2248.67 1957.09 2253.03 1949.16 2255.37 1944.49C2373.54 1943.96 2457.37 1918.99 2493.87 1875.49C2562.41 1793.79 2497.03 1701.24 2395.37 1724.99C2362.37 1725.99 2341.2 1739.99 2330.37 1749.99Z"></path>
  <path fill="#452727" d="M2214.87 1129.49C2248.47 998.694 2143.2 927.328 2086.37 907.994C2052.19 1052.16 2050.14 1133.45 2085.37 1279.49C2114.53 1283.99 2181.27 1260.29 2214.87 1129.49Z"></path>
  <path fill="#797979" d="M1199.87 2303.49H1166.37V2424.49H1199.87V2303.49ZM1511.37 2334.49 1267.37 2417.49 1266.87 2427.49 1538.87 2431.99V2334.49H1511.37ZM811.866 2446.49V2367.99H839.366L1108.87 2424.49 1103.87 2436.99 811.866 2446.49Z"></path>
  <path fill="#C4C4C4" d="M1707.37 2425.49V2594.99L660.366 2604.49V2450.99L1232.87 2416.49L1707.37 2425.49Z"></path>
  <path fill="#FFBF90" d="M443.866 2587.99H2432.87V2650.99H443.866V2587.99Z"></path>
  <path fill="#FFA07F" d="M2055.87 1283.49C2044.03 1309.99 2028.87 1378.99 2044.87 1416.49C2029.37 1524.99 1837.87 1568.49 1899.37 1430.49C1912.96 1399.99 1919.64 1367.89 1904.87 1338.49C1877.53 1345.33 1822.07 1352.59 1818.87 1326.99C1731.81 1231.63 1718.24 1176.58 1807.87 1042.99C1831.68 955.095 1849.22 916.069 1895.37 885.994C1932.87 857.994 2028.27 831.594 2089.87 917.994C2101.87 951.661 2106.37 1046.49 2089.87 1079.99C2089.96 1080.04 2090.04 1080.09 2090.13 1080.13C2096.04 1106.42 2099.51 1149.99 2080.37 1167.49C2062.87 1183.49 2079.23 1184.99 2090.13 1176.49C2193.37 1095.99 2169.87 1296.49 2055.87 1283.49Z"></path>
  <path fill="#fff" d="M1871.87 901.994C1986.37 806.494 2232.37 955.495 2210.87 1143.99C2239.87 1147.49 2249.21 1120.08 2263.87 1091.49C2317.37 1126.49 2446.74 1106.85 2457.37 1012.49C2466.72 929.458 2327.87 777.494 2251.87 710.994C2116.87 421.495 1835.87 582.494 1979.87 804.994C1961.03 820.327 1917.77 852.794 1895.37 859.994C1872.97 867.194 1870.37 890.994 1871.87 901.994Z"></path>
  <path fill="#D3D3D3" fill-rule="evenodd" d="M2106.05 710.644C2093.59 709.306 2080.12 712.097 2064.69 719.686L2062.04 714.302C2078.19 706.359 2092.81 703.188 2106.69 704.678C2120.58 706.169 2133.41 712.288 2146.02 722.352C2171.05 742.322 2195.87 778.375 2227.23 826.712C2254.61 859.609 2279.26 905.824 2306.12 967.801L2300.61 970.187C2273.77 908.247 2249.36 862.639 2222.51 830.415C2199.77 803.127 2175.33 785.482 2146.19 775.655C2117.01 765.809 2082.88 763.733 2040.67 767.979L2040.07 762.009C2082.75 757.716 2117.81 759.75 2148.11 769.97C2168.93 776.993 2187.39 787.843 2204.46 803C2181.17 768.254 2161.67 742.513 2142.28 727.042C2130.29 717.48 2118.51 711.982 2106.05 710.644ZM2307.57 873.068L2246.07 712.568L2251.67 710.421L2313.17 870.921L2307.57 873.068ZM2013.09 787.452L1983.09 808.452L1979.65 803.537L2009.65 782.537L2013.09 787.452ZM2258.89 1088.3L2310.89 1012.3L2315.84 1015.69L2263.84 1091.69L2258.89 1088.3Z" clip-rule="evenodd"></path>
  <path fill="#452727" d="M2005.37 1009.49C1982.32 1018.37 1944.87 1018.99 1944.87 1014.49 1944.87 992.994 2003.37 978.194 2031.37 988.994 2059.37 999.794 2055.87 1011.33 2050.37 1017.49 2045.49 1012.24 2026.44 1001.37 2005.37 1009.49ZM1864.37 991.994C1852.37 960.394 1834.03 962.161 1826.37 966.994 1823.2 974.661 1818.97 988.794 1827.37 983.994 1836.17 979.194 1843.37 987.328 1845.87 991.994 1848.81 997.494 1867.52 998.177 1864.37 991.994Z"></path>
  <path fill="#CC7256" d="M1794.87 1177.99C1805.93 1190.78 1941.57 1196.12 2001.37 1187.49C1945.37 1294.49 1808.87 1352.99 1794.87 1177.99Z"></path>
  <path fill="#452727" d="M1987.78 1071.54C1984.52 1084.1 1975.15 1092.54 1966.87 1090.38C1958.58 1088.23 1954.51 1076.3 1957.78 1063.74C1961.05 1051.18 1970.41 1042.74 1978.7 1044.9C1986.98 1047.05 1991.05 1058.98 1987.78 1071.54Z"></path>
  <path fill="#DDD0AC" d="M1221.19 2075.36H1374.39V2253.99C1374.39 2265.04 1365.43 2273.99 1354.39 2273.99H1241.19C1230.14 2273.99 1221.19 2265.04 1221.19 2253.99V2075.36Z"></path>
  <path fill="#D1C39B" d="M1205.87 2060.99C1205.87 2055.47 1210.34 2050.99 1215.87 2050.99H1379.71C1385.23 2050.99 1389.71 2055.47 1389.71 2060.99V2072.01C1389.71 2077.53 1385.23 2082.01 1379.71 2082.01H1215.87C1210.34 2082.01 1205.87 2077.53 1205.87 2072.01V2060.99Z"></path>
  <path fill="#DDD0AC" d="M1412.35 2075.36H1565.55V2253.99C1565.55 2265.04 1556.59 2273.99 1545.55 2273.99H1432.35C1421.3 2273.99 1412.35 2265.04 1412.35 2253.99V2075.36Z"></path>
  <path fill="#D1C39B" d="M1397.03 2060.99C1397.03 2055.47 1401.5 2050.99 1407.03 2050.99H1570.87C1576.39 2050.99 1580.87 2055.47 1580.87 2060.99V2072.01C1580.87 2077.53 1576.39 2082.01 1570.87 2082.01H1407.03C1401.5 2082.01 1397.03 2077.53 1397.03 2072.01V2060.99Z"></path>
  <path fill="#452727" d="M1855.78 1040.54C1852.52 1053.1 1843.15 1061.54 1834.87 1059.38C1826.58 1057.23 1822.51 1045.3 1825.78 1032.74C1829.05 1020.18 1838.41 1011.74 1846.7 1013.9C1854.98 1016.05 1859.05 1027.98 1855.78 1040.54Z"></path>
  <path fill="#8B1A1A" fill-rule="evenodd" d="M1983.41 1216.51C1937.76 1279.68 1865.67 1314.31 1824.76 1267.9C1837.33 1251.59 1864.58 1234.62 1898.48 1223.73C1931.97 1212.98 1963.64 1210.83 1983.41 1216.51Z" clip-rule="evenodd"></path>
  <path fill="#fff" fill-rule="evenodd" d="M1974.59 1227.96C1984.66 1215.68 1993.76 1202.03 2001.37 1187.49C1941.57 1196.12 1805.93 1190.78 1794.87 1177.99C1795.75 1189.06 1797.13 1199.2 1798.94 1208.45L1974.59 1227.96Z" clip-rule="evenodd"></path>
  <path fill="#FFA07F" d="M1621.87 1958.99C1649.87 1871.99 1568.87 1785.99 1490.37 1829.49C1453.55 1844.49 1428.57 1846.61 1382.37 1847.99C1383.29 1830.58 1381.65 1821.23 1360.87 1807.99C1341.7 1785.83 1298.37 1747.29 1278.37 1770.49C1258.37 1793.69 1205.87 1837.49 1181.37 1855.99C1151.37 1878.99 1141.37 1958.49 1197.87 1942.99C1195.37 1959.49 1213.37 1981.99 1238.37 1974.49C1254.24 1988.95 1259.79 2004.75 1288.37 1989.99C1302.37 2024.49 1358.87 2006.99 1377.37 1944.99C1414.92 1981.63 1439.12 2000.47 1621.87 1958.99Z"></path>
  <path fill="#B72E2E" d="M1942.87 2392.99H2052.87L2067.99 2571.73C2068.73 2580.48 2061.83 2587.99 2053.04 2587.99H1941.31C1932.49 2587.99 1925.57 2580.41 1926.38 2571.62L1942.87 2392.99Z"></path>
  <path fill="#7E1B1B" d="M2052.01 2383.99H1943.72L1942.87 2392.99H2052.87L2052.01 2383.99Z"></path>
  <path fill="#9B2020" d="M1930.87 2368.99C1930.87 2363.47 1935.34 2358.99 1940.87 2358.99H2055.87C2061.39 2358.99 2065.87 2363.47 2065.87 2368.99V2373.99C2065.87 2379.52 2061.39 2383.99 2055.87 2383.99H1940.87C1935.34 2383.99 1930.87 2379.52 1930.87 2373.99V2368.99Z"></path>
  <path fill="#F9D25E" d="M2207.87 2392.99H2317.87L2332.99 2571.73C2333.73 2580.48 2326.83 2587.99 2318.04 2587.99H2206.31C2197.49 2587.99 2190.57 2580.41 2191.38 2571.62L2207.87 2392.99Z"></path>
  <path fill="#977A25" d="M2317.01 2383.99H2208.72L2207.87 2392.99H2317.87L2317.01 2383.99Z"></path>
  <path fill="#DCB237" d="M2195.87 2368.99C2195.87 2363.47 2200.34 2358.99 2205.87 2358.99H2320.87C2326.39 2358.99 2330.87 2363.47 2330.87 2368.99V2373.99C2330.87 2379.52 2326.39 2383.99 2320.87 2383.99H2205.87C2200.34 2383.99 2195.87 2379.52 2195.87 2373.99V2368.99Z"></path>
  <path fill="#fff" d="M2115.87 2392.99H2225.87L2240.99 2571.73C2241.73 2580.48 2234.83 2587.99 2226.04 2587.99H2114.31C2105.49 2587.99 2098.57 2580.41 2099.38 2571.62L2115.87 2392.99Z"></path>
  <path fill="#C5C5C5" d="M2225.01 2383.99H2116.72L2115.87 2392.99H2225.87L2225.01 2383.99Z"></path>
  <path fill="#DFDFDF" d="M2103.87 2368.99C2103.87 2363.47 2108.34 2358.99 2113.87 2358.99H2228.87C2234.39 2358.99 2238.87 2363.47 2238.87 2368.99V2373.99C2238.87 2379.52 2234.39 2383.99 2228.87 2383.99H2113.87C2108.34 2383.99 2103.87 2379.52 2103.87 2373.99V2368.99Z"></path>
  <path fill="#797979" d="M2376.87 1880.99C2377.92 1911.49 2303.87 1918.33 2269.37 1918.99V1877.49C2303.2 1871.33 2373.87 1850.99 2376.87 1880.99ZM2045.37 1947.99 2047.37 1913.99 1656.87 1964.99C1630.87 1943.99 1525.87 1958.99 1487.37 1962.49 1456.57 1965.29 1534.03 2016.16 1574.87 2039.49 1590.37 2048.35 1723.87 2016.83 1730.87 2010.99 1742.87 2000.99 1708.87 1987.83 1687.87 1984.49L2045.37 1947.99Z"></path>
  <path fill="#FFAC56" d="M747.366 695.994C768.7 627.994 1012.87 514.494 1089.37 528.994C1071.2 555.994 1041.27 610.194 1066.87 610.994C1098.87 611.994 1146.87 590.994 1132.87 625.994C1122.07 652.994 881.366 825.494 941.866 1106.49C949.866 1097.49 968.366 1083.39 978.366 1092.99C990.866 1104.99 1067.87 1398.49 1029.87 1421.49C1022.43 1425.99 1029.87 1434.99 1046.87 1441.49C1055.37 1444.74 1051.18 1470.19 1059.37 1473.99C1085.37 1483.49 1111.53 1620.49 1122.87 1687.49L601.866 1263.99C467.866 1073.99 652.366 699.994 701.866 725.994C735.366 741.494 742.033 712.994 747.366 695.994Z"></path>
  <path fill="#121212" d="M1427.87 1979.49C1480.87 2019.49 1410.87 2069.99 1350.87 1989.99 1364.87 1975.49 1373.37 1960.49 1373.87 1937.99L1427.87 1979.49ZM1225.87 1861.49C1198.54 1837.68 1207.02 1828.57 1237.87 1810.99 1221.37 1791.99 1192.87 1770.49 1183.87 1775.99 1167.5 1785.99 1141.87 1808.49 1147.87 1819.99 1149.43 1822.99 1181.25 1853.84 1209.87 1874.49L1225.87 1861.49Z"></path>
  <path fill="#CC7256" fill-rule="evenodd" d="M1863.23 1045.63C1867.07 1034.36 1868.37 1021.44 1868.37 1012.99H1874.37C1874.37 1021.89 1873.02 1035.51 1868.91 1047.56C1864.86 1059.43 1857.74 1070.89 1845.48 1073.43C1832.84 1076.05 1825.56 1081.96 1822.79 1089.19C1820.01 1096.48 1821.44 1106.08 1828.39 1116.87L1823.34 1120.12C1815.8 1108.41 1813.48 1096.76 1817.19 1087.05C1820.92 1077.28 1830.39 1070.44 1844.26 1067.56C1853.2 1065.7 1859.32 1057.08 1863.23 1045.63ZM2050.67 1097.69C2037.58 1104.03 2020.2 1104.5 2013.15 1103.99L2013.59 1098C2020.2 1098.49 2036.35 1097.96 2048.06 1092.29L2050.67 1097.69ZM2136.65 1188.73C2137.16 1194.35 2136.58 1201.83 2135.34 1210.9L2129.39 1210.09C2130.62 1201.08 2131.12 1194.17 2130.67 1189.27C2130.21 1184.18 2128.86 1182.43 2127.62 1181.86C2126.16 1181.2 2123.16 1181.3 2117.4 1184.14C2111.86 1186.87 2104.58 1191.71 2095.19 1198.88L2091.55 1194.11C2101.02 1186.88 2108.67 1181.75 2114.75 1178.76C2120.61 1175.87 2125.93 1174.5 2130.11 1176.41C2134.53 1178.42 2136.16 1183.3 2136.65 1188.73ZM2086.67 1258.75C2088.66 1258.22 2091.08 1257.21 2094.08 1255.78L2096.65 1261.2C2093.59 1262.66 2090.76 1263.87 2088.21 1264.54C2085.66 1265.22 2083.06 1265.46 2080.62 1264.61C2078.09 1263.73 2076.25 1261.85 2074.89 1259.31C2073.57 1256.83 2072.63 1253.56 2071.91 1249.52L2077.82 1248.47C2078.5 1252.26 2079.3 1254.82 2080.19 1256.49C2081.04 1258.1 2081.87 1258.69 2082.6 1258.95C2083.42 1259.24 2084.66 1259.28 2086.67 1258.75ZM1903.9 1336.03C1963.25 1326.64 1994.24 1317.17 2044.41 1289.37L2047.32 1294.62C1996.43 1322.81 1964.75 1332.47 1904.84 1341.96L1903.9 1336.03ZM1215.04 1831.22C1224.03 1826.23 1238.05 1815.84 1251.11 1804.85C1264.5 1793.59 1277.34 1781.31 1282.85 1773.18L1277.88 1769.81C1272.89 1777.18 1260.65 1788.98 1247.25 1800.26C1233.89 1811.5 1219.83 1821.84 1211.44 1826.35L1210.72 1826.74L1210.3 1827.44C1206.91 1833.06 1206.12 1839.05 1207.85 1844.5C1209.58 1849.91 1213.69 1854.44 1219.49 1857.38C1220.44 1857.87 1221.44 1858.32 1222.49 1858.72C1218.46 1861.67 1214.65 1864.69 1210.91 1867.65C1208.67 1869.42 1206.46 1871.17 1204.24 1872.87C1196.7 1878.67 1188.88 1884.13 1179.08 1888.78L1181.65 1894.2C1192 1889.3 1200.21 1883.54 1207.9 1877.63C1210.25 1875.82 1212.54 1874.01 1214.81 1872.21C1219.74 1868.31 1224.63 1864.44 1230.06 1860.68C1240.53 1862.28 1253.91 1860.24 1269.09 1852.87C1271.87 1856.18 1274.6 1859.34 1277.28 1862.35C1279.03 1873.78 1273.98 1884.31 1260.07 1896.56C1245.76 1909.16 1222.68 1923.01 1189.93 1940.86L1192.8 1946.13C1225.48 1928.32 1249.15 1914.17 1264.04 1901.06C1275.98 1890.54 1282.67 1880.34 1283.52 1869.14C1292.99 1879.13 1302.15 1887.27 1311.96 1893.73C1316.02 1899.06 1315.9 1905.4 1312.12 1912.77C1308.19 1920.41 1300.53 1928.63 1290.66 1936.54C1270.95 1952.34 1243.46 1966.13 1223.16 1971.08L1224.58 1976.91C1245.84 1971.72 1274.1 1957.5 1294.41 1941.22C1304.56 1933.09 1312.97 1924.24 1317.45 1915.51C1320.29 1909.99 1321.62 1904.32 1320.68 1898.94C1320.72 1898.95 1320.75 1898.97 1320.78 1898.99C1339.73 1909.13 1361.52 1913.57 1391.82 1913.99L1391.91 1907.99C1362.15 1907.58 1341.41 1903.22 1323.61 1893.7C1306.54 1884.57 1291.9 1870.54 1274.55 1850.04C1282.84 1845.44 1291.65 1839.28 1300.84 1831.25L1296.89 1826.73C1286.79 1835.55 1277.25 1841.98 1268.5 1846.46C1247.63 1857.15 1231.45 1856.74 1222.21 1852.04C1217.6 1849.69 1214.73 1846.32 1213.57 1842.67C1212.48 1839.25 1212.8 1835.29 1215.04 1831.22ZM2210.96 1799C2230.83 1799.63 2243.42 1803.62 2267.19 1815.3L2264.54 1820.69C2241.2 1809.21 2229.48 1805.59 2210.77 1804.99L2210.96 1799ZM1256.33 1825.1C1254.22 1822.91 1251.59 1820.73 1249.1 1818.92L1252.63 1814.07C1255.31 1816.01 1258.23 1818.43 1260.65 1820.94C1262.98 1823.35 1265.21 1826.23 1265.95 1829.12C1266.34 1830.65 1266.36 1832.42 1265.49 1834.08C1264.62 1835.73 1263.12 1836.83 1261.38 1837.54C1258.03 1838.9 1252.84 1839.19 1245.58 1838.48L1246.16 1832.51C1253.29 1833.2 1257.22 1832.75 1259.12 1831.98C1260 1831.62 1260.16 1831.32 1260.17 1831.3C1260.17 1831.3 1260.27 1831.14 1260.13 1830.6C1259.81 1829.32 1258.54 1827.39 1256.33 1825.1ZM1387.27 1859.77C1387.79 1860.22 1388.5 1860.53 1389.78 1860.5L1389.95 1866.49C1387.44 1866.56 1385.22 1865.9 1383.39 1864.36C1381.66 1862.89 1380.55 1860.86 1379.76 1858.68C1378.4 1854.95 1377.64 1849.8 1376.77 1843.93C1376.65 1843.11 1376.53 1842.28 1376.4 1841.44L1382.33 1840.55C1382.46 1841.39 1382.58 1842.21 1382.7 1843C1383.6 1849.05 1384.27 1853.52 1385.4 1856.63C1386.01 1858.32 1386.66 1859.26 1387.27 1859.77ZM2270.95 1859.81C2270.69 1856.95 2270.21 1855.26 2269.77 1854.5L2274.96 1851.49C2276.1 1853.45 2276.65 1856.25 2276.93 1859.26C2277.22 1862.37 2277.24 1866.13 2277.05 1870.3C2276.68 1878.63 2275.45 1888.85 2273.63 1899.28C2271.81 1909.72 2269.4 1920.46 2266.64 1929.83C2263.9 1939.14 2260.76 1947.36 2257.39 1952.61L2252.34 1949.38C2255.23 1944.88 2258.18 1937.33 2260.89 1928.14C2263.57 1919.02 2265.93 1908.51 2267.72 1898.25C2269.51 1887.99 2270.7 1878.04 2271.06 1870.03C2271.24 1866.02 2271.21 1862.55 2270.95 1859.81ZM1258.37 1884.09L1241.87 1874.59L1244.86 1869.39L1261.36 1878.89L1258.37 1884.09ZM1396.32 1877.58C1396.32 1877.58 1396.34 1877.61 1396.37 1877.66L1401.36 1874.33C1401.71 1874.85 1401.98 1875.55 1402.14 1875.97C1402.29 1876.38 1402.47 1876.87 1402.66 1877.39C1402.72 1877.56 1402.78 1877.73 1402.84 1877.89C1403.36 1879.35 1404.03 1881.13 1404.87 1882.99C1406.62 1886.83 1408.95 1890.53 1411.98 1892.47L1408.75 1897.52C1404.19 1894.61 1401.27 1889.56 1399.41 1885.48C1398.46 1883.39 1397.73 1881.42 1397.2 1879.93C1396.92 1879.17 1396.71 1878.58 1396.53 1878.11C1396.38 1877.72 1396.32 1877.59 1396.32 1877.58ZM2060.52 1883.54C2060.6 1883.38 2060.52 1883.5 2060.46 1883.77L2066.28 1885.22C2066.16 1885.69 2065.95 1886.1 2065.85 1886.31C2065.71 1886.57 2065.54 1886.86 2065.37 1887.15C2065.03 1887.72 2064.57 1888.43 2064.06 1889.22L2063.74 1889.72C2062.77 1891.22 2061.6 1893.03 2060.42 1895.01C2057.69 1899.56 2055.26 1904.4 2054.84 1907.85L2048.89 1907.14C2049.47 1902.25 2052.59 1896.39 2055.27 1891.93C2056.51 1889.86 2057.73 1887.96 2058.7 1886.46L2059.02 1885.97C2059.53 1885.17 2059.94 1884.53 2060.23 1884.06C2060.3 1883.93 2060.36 1883.83 2060.41 1883.74C2060.46 1883.66 2060.49 1883.6 2060.52 1883.54ZM2118.43 1902.33C2118.45 1902.27 2118.52 1901.97 2118.68 1901.65L2124.05 1904.34C2124.15 1904.14 2124.2 1903.99 2124.21 1903.95C2124.23 1903.88 2124.24 1903.84 2124.25 1903.82C2124.25 1903.81 2124.25 1903.8 2124.25 1903.8C2124.25 1903.8 2124.25 1903.81 2124.25 1903.83C2124.24 1903.86 2124.23 1903.9 2124.22 1903.96C2124.21 1904.03 2124.19 1904.13 2124.17 1904.26C2124.1 1904.68 2124.01 1905.3 2123.91 1906.11C2123.69 1907.72 2123.41 1910.02 2123.08 1912.84C2122.43 1918.49 2121.62 1926.23 2120.82 1934.79C2119.23 1951.96 2117.74 1972.33 2117.87 1985.97L2111.87 1986.02C2111.74 1972.05 2113.25 1951.41 2114.85 1934.24C2115.65 1925.63 2116.47 1917.85 2117.12 1912.16C2117.45 1909.31 2117.74 1906.98 2117.96 1905.32C2118.07 1904.49 2118.17 1903.81 2118.25 1903.32C2118.27 1903.19 2118.29 1903.07 2118.31 1902.95C2118.32 1902.85 2118.34 1902.75 2118.36 1902.66C2118.37 1902.6 2118.38 1902.54 2118.4 1902.47C2118.41 1902.43 2118.42 1902.38 2118.43 1902.34L2118.43 1902.33ZM1275.73 1910.32C1275.35 1909.86 1274.96 1909.39 1274.56 1908.92L1279.17 1905.07C1279.6 1905.58 1280.01 1906.08 1280.41 1906.56C1282.03 1908.52 1283.45 1910.23 1284.83 1911.69C1286.55 1913.52 1287.99 1914.72 1289.34 1915.4C1290.59 1916.04 1291.81 1916.24 1293.28 1915.94C1294.84 1915.61 1296.87 1914.66 1299.54 1912.61L1303.19 1917.38C1300.13 1919.72 1297.28 1921.23 1294.5 1921.81C1291.62 1922.41 1289.02 1921.96 1286.63 1920.76C1284.35 1919.61 1282.34 1917.8 1280.46 1915.8C1278.94 1914.19 1277.37 1912.3 1275.73 1910.32ZM1341.5 1924.04C1338.48 1919.39 1332.03 1916.25 1326.64 1914.9L1328.09 1909.08C1334.04 1910.57 1342.29 1914.23 1346.53 1920.77C1348.73 1924.16 1349.82 1928.28 1348.96 1933.01C1348.11 1937.66 1345.42 1942.65 1340.59 1948C1340.32 1948.31 1340.04 1948.62 1339.76 1948.92C1342.48 1950.89 1344.51 1951.76 1346.4 1951.91C1348.78 1952.09 1351.63 1951.16 1356.16 1948.03L1359.57 1952.96C1354.7 1956.33 1350.42 1958.23 1345.95 1957.89C1342.33 1957.61 1339.06 1955.9 1335.68 1953.37C1322.37 1967.71 1306.64 1982.91 1292.46 1991.8C1287.54 1994.89 1282.69 1997.3 1278.11 1998.62C1273.53 1999.94 1269 2000.24 1264.89 1998.83L1266.84 1993.16C1269.39 1994.03 1272.58 1993.97 1276.44 1992.86C1280.3 1991.74 1284.62 1989.64 1289.27 1986.72C1303.4 1977.86 1319.5 1962.14 1333.16 1947.26C1334.17 1946.16 1335.16 1945.07 1336.14 1943.99C1340.51 1939.14 1342.47 1935.13 1343.05 1931.93C1343.62 1928.82 1342.93 1926.25 1341.5 1924.04ZM2176.87 1920.44C2176.87 1920.44 2176.87 1920.46 2176.87 1920.49H2182.87C2182.87 1920.86 2182.8 1921.33 2182.76 1921.66C2182.7 1922.07 2182.62 1922.58 2182.53 1923.19C2182.33 1924.4 2182.05 1926.02 2181.72 1927.94C2181.62 1928.55 2181.51 1929.18 2181.39 1929.85C2180.78 1933.4 2180.03 1937.73 2179.26 1942.36C2177.44 1953.4 2175.61 1965.82 2175.36 1973.09L2169.37 1972.89C2169.63 1965.16 2171.54 1952.34 2173.34 1941.38C2174.11 1936.72 2174.87 1932.34 2175.49 1928.79C2175.6 1928.14 2175.71 1927.51 2175.81 1926.92C2176.14 1925 2176.41 1923.4 2176.6 1922.23C2176.7 1921.64 2176.77 1921.18 2176.82 1920.84C2176.86 1920.55 2176.86 1920.44 2176.87 1920.44ZM1369.62 1942.41C1366.93 1937.34 1362.11 1933.55 1358.48 1931.66L1361.25 1926.33C1365.62 1928.61 1371.5 1933.16 1374.92 1939.6C1378.44 1946.25 1379.2 1954.72 1373.42 1964.07L1368.32 1960.92C1372.93 1953.46 1372.19 1947.27 1369.62 1942.41ZM1320.29 1946.19C1314.26 1944.37 1308.81 1938.87 1306.98 1932.3L1312.76 1930.69C1314.05 1935.33 1318.01 1939.24 1322.02 1940.45C1323.96 1941.03 1325.75 1940.94 1327.27 1940.21C1328.77 1939.48 1330.37 1937.93 1331.58 1934.89L1337.15 1937.1C1335.52 1941.21 1333.02 1944.09 1329.89 1945.61C1326.76 1947.12 1323.38 1947.12 1320.29 1946.19ZM2225.87 1952.99V1933.99H2231.87V1952.99H2225.87Z" clip-rule="evenodd"></path>
  <path fill="#CFA529" fill-rule="evenodd" d="M1881.25 1537.45C1870.79 1525.72 1866.68 1509.75 1863.4 1488.96L1869.33 1488.03C1872.6 1508.8 1876.55 1523.16 1885.73 1533.46C1894.86 1543.69 1909.62 1550.39 1935.83 1554.53L1934.9 1560.46C1908.22 1556.25 1891.76 1549.24 1881.25 1537.45ZM2243.08 1618.01C2241.53 1667.12 2248.86 1723.5 2258.82 1778.46L2252.91 1779.53C2242.94 1724.45 2235.52 1667.58 2237.08 1617.82C2238.64 1568.18 2249.16 1524.97 2275.72 1497.89L2280.01 1502.1C2255.07 1527.52 2244.63 1568.79 2243.08 1618.01ZM2287.48 1537.18C2296.43 1534.08 2306.17 1534.47 2316.06 1538.74L2313.68 1544.25C2305.06 1540.52 2296.87 1540.28 2289.44 1542.85C2281.97 1545.44 2275.04 1550.96 2269.19 1559.17C2257.46 1575.63 2250.39 1602.51 2252.36 1635.82L2246.37 1636.17C2244.35 1601.98 2251.53 1573.61 2264.3 1555.69C2270.7 1546.71 2278.57 1540.27 2287.48 1537.18ZM2290.04 1584.39C2302.22 1573.88 2315.27 1571.94 2331.56 1573L2331.17 1578.99C2315.66 1577.98 2304.45 1579.88 2293.95 1588.93C2283.19 1598.22 2272.86 1615.28 2260.13 1645.65L2254.6 1643.34C2267.35 1612.9 2278.12 1594.67 2290.04 1584.39ZM1671.82 1664.12C1671.17 1641.69 1670.47 1622.48 1669.89 1617.87L1675.84 1617.12C1676.47 1622.11 1677.18 1641.73 1677.82 1663.95C1678.46 1686.28 1679.03 1711.51 1679.37 1727.93L1673.37 1728.06C1673.03 1711.64 1672.46 1686.43 1671.82 1664.12ZM2188.06 1731.55C2178.18 1705.28 2157.88 1651.62 2155.15 1645.76L2160.58 1643.23C2163.45 1649.36 2183.88 1703.38 2193.67 1729.44L2188.06 1731.55ZM1648.36 1691.13C1654.64 1702.09 1661.91 1719.4 1666.67 1731.93L1661.06 1734.06C1656.32 1721.59 1649.19 1704.65 1643.15 1694.11C1641.65 1691.48 1640.25 1689.34 1639.03 1687.78C1638.38 1686.96 1637.85 1686.41 1637.46 1686.05C1637.21 1686.92 1636.97 1688.38 1636.86 1690.63C1635.7 1715.81 1647.1 1741.38 1652.93 1750.93L1647.81 1754.06C1641.63 1743.94 1629.63 1717.18 1630.87 1690.36C1631.02 1687.04 1631.47 1684.3 1632.46 1682.43C1632.98 1681.44 1633.8 1680.42 1635.08 1679.87C1636.41 1679.29 1637.73 1679.44 1638.79 1679.85C1640.68 1680.57 1642.35 1682.31 1643.74 1684.07C1645.22 1685.95 1646.78 1688.38 1648.36 1691.13ZM1637.83 1685.11C1637.83 1685.11 1637.83 1685.12 1637.83 1685.12C1637.83 1685.12 1637.83 1685.11 1637.83 1685.11ZM1617.12 1778.99C1633.5 1789.42 1646.74 1805 1661.85 1827.31L1656.88 1830.68C1641.9 1808.56 1629.21 1793.81 1613.89 1784.05C1598.62 1774.33 1580.44 1769.39 1554.15 1767.49L1554.58 1761.5C1581.41 1763.44 1600.69 1768.54 1617.12 1778.99ZM1510.85 1787.22C1533.57 1786.98 1559.23 1790.36 1575.93 1793.55L1574.8 1799.44C1558.34 1796.3 1533.1 1792.98 1510.91 1793.22C1499.8 1793.34 1489.63 1794.35 1481.76 1796.63C1473.77 1798.94 1468.91 1802.34 1467.14 1806.63L1461.59 1804.35C1464.43 1797.45 1471.59 1793.33 1480.09 1790.87C1488.72 1788.37 1499.5 1787.34 1510.85 1787.22ZM1641.06 1850.18L1659.56 1888.18L1654.17 1890.81L1635.67 1852.81L1641.06 1850.18Z" clip-rule="evenodd"></path>
  <path fill="#474B1B" fill-rule="evenodd" d="M1804.09 1715.44C1802.77 1715.61 1802.07 1715.76 1801.82 1715.84L1799.92 1710.15C1800.79 1709.86 1802.02 1709.65 1803.35 1709.49C1804.75 1709.31 1806.51 1709.15 1808.56 1709.01C1812.66 1708.71 1818.05 1708.47 1824.4 1708.27C1837.11 1707.86 1853.76 1707.65 1871.79 1707.63C1907.84 1707.58 1949.55 1708.33 1976.55 1710L1976.18 1715.99C1949.36 1714.33 1907.8 1713.58 1871.8 1713.63C1853.8 1713.65 1837.22 1713.86 1824.59 1714.26C1818.28 1714.46 1812.97 1714.71 1808.99 1714.99C1806.99 1715.13 1805.35 1715.28 1804.09 1715.44ZM1681.66 1775.96L1741.66 1710.96L1746.07 1715.03L1686.07 1780.03L1681.66 1775.96ZM2137.21 1754.4C2135.82 1753.64 2135.09 1753.49 2134.87 1753.49V1747.49C2136.64 1747.49 2138.47 1748.25 2140.09 1749.14C2141.79 1750.07 2143.65 1751.37 2145.59 1752.89C2149.49 1755.95 2153.96 1760.13 2158.49 1764.69C2167.58 1773.84 2177.14 1784.79 2183.18 1792.08L2178.55 1795.91C2172.59 1788.7 2163.15 1777.9 2154.24 1768.92C2149.77 1764.42 2145.5 1760.45 2141.89 1757.61C2140.08 1756.19 2138.51 1755.11 2137.21 1754.4Z" clip-rule="evenodd"></path>
  <path fill="#8B1A1A" d="M550.576 1192.88L1227.33 1740.81V1740.81C1116.55 1877.63 915.837 1898.74 779.018 1787.96L597.732 1641.18C460.913 1530.41 439.801 1329.69 550.576 1192.88V1192.88Z"></path>
  <path fill="#BABABA" d="M1228.37 1740.49C1220.41 1749.83 1062.45 1643.7 876.866 1485.49C691.281 1327.29 542.408 1199.33 550.366 1189.99C558.325 1180.66 714.896 1299.92 900.481 1458.13C1086.07 1616.33 1236.32 1731.16 1228.37 1740.49Z"></path>
  <path fill="#FFAC56" fill-rule="evenodd" d="M580.206 1226.01C576.006 1216.75 572.365 1207.2 569.244 1197.43C617.175 1226.06 749.186 1329.15 900.481 1458.13C967.912 1515.61 1030.68 1567.37 1082.89 1610.42C1093.54 1619.2 1103.75 1627.62 1113.48 1635.66C1116.37 1650.57 1118.93 1664.72 1121.09 1677.14C1057.23 1631.97 970.568 1565.37 876.866 1485.49C745.206 1373.26 632.024 1276.25 580.206 1226.01Z" clip-rule="evenodd"></path>
  <path fill="#ED963B" d="M921.229 699.803C925.213 710.989 923.803 721.71 918.08 723.748 912.357 725.786 904.488 718.371 900.504 707.185 896.52 695.999 897.929 685.279 903.652 683.241 909.375 681.202 917.244 688.618 921.229 699.803ZM845.77 953.55C847.664 963.292 845.16 971.975 840.175 972.944 835.191 973.913 829.615 966.802 827.72 957.06 825.826 947.318 828.331 938.634 833.315 937.665 838.299 936.696 843.875 943.808 845.77 953.55ZM909.646 1188.54C911.126 1196.15 909.169 1202.94 905.275 1203.69 901.382 1204.45 897.026 1198.89 895.546 1191.28 894.066 1183.67 896.023 1176.89 899.916 1176.13 903.81 1175.38 908.166 1180.93 909.646 1188.54ZM826.762 1287.83C830.583 1292.24 831.249 1297.93 828.249 1300.52 825.249 1303.12 819.72 1301.64 815.899 1297.23 812.078 1292.81 811.412 1287.12 814.411 1284.53 817.411 1281.93 822.941 1283.41 826.762 1287.83ZM940.598 1304.84C944.375 1315.28 942.184 1325.64 935.703 1327.99 929.223 1330.33 920.907 1323.77 917.13 1313.33 913.353 1302.89 915.545 1292.53 922.025 1290.18 928.506 1287.84 936.821 1294.4 940.598 1304.84ZM1096.17 1088.9C1099.95 1099.33 1097.76 1109.7 1091.28 1112.04 1084.8 1114.39 1076.48 1107.83 1072.71 1097.39 1068.93 1086.95 1071.12 1076.59 1077.6 1074.24 1084.08 1071.9 1092.4 1078.46 1096.17 1088.9ZM1119.17 1363.9C1122.95 1374.33 1120.76 1384.7 1114.28 1387.04 1107.8 1389.39 1099.48 1382.83 1095.71 1372.39 1091.93 1361.95 1094.12 1351.59 1100.6 1349.24 1107.08 1346.9 1115.4 1353.46 1119.17 1363.9ZM993.55 1004.65C991.482 1016.95 984.356 1026 977.632 1024.87 970.909 1023.74 967.134 1012.85 969.202 1000.56 971.27 988.261 978.396 979.21 985.12 980.34 991.843 981.471 995.618 992.356 993.55 1004.65ZM1248.07 740.087C1234.63 754.166 1217.5 759.624 1209.81 752.279 1202.11 744.933 1206.76 727.565 1220.19 713.486 1233.63 699.408 1250.76 693.949 1258.45 701.295 1266.15 708.64 1261.5 726.008 1248.07 740.087ZM1372.18 587.999C1362.12 598.541 1349.29 602.628 1343.53 597.128 1337.76 591.628 1341.24 578.623 1351.3 568.082 1361.36 557.54 1374.19 553.453 1379.95 558.953 1385.72 564.453 1382.23 577.458 1372.18 587.999ZM1151.63 485.696C1143.97 493.723 1134.2 496.835 1129.81 492.647 1125.42 488.459 1128.08 478.556 1135.74 470.529 1143.39 462.502 1153.16 459.39 1157.55 463.578 1161.94 467.766 1159.29 477.669 1151.63 485.696ZM1007.65 925.65C1010.28 933.743 1008.82 941.47 1004.4 942.907 999.97 944.343 994.252 938.947 991.624 930.853 988.996 922.759 990.454 915.033 994.88 913.596 999.305 912.159 1005.02 917.556 1007.65 925.65ZM716.082 780.944C716.55 790.858 712.819 799.088 707.747 799.328 702.675 799.568 698.183 791.726 697.715 781.812 697.246 771.899 700.978 763.668 706.05 763.428 711.122 763.189 715.613 771.031 716.082 780.944ZM694.24 903.146C694.479 908.2 692.223 912.413 689.202 912.556 686.181 912.699 683.538 908.717 683.299 903.663 683.06 898.609 685.316 894.396 688.337 894.253 691.358 894.11 694.001 898.092 694.24 903.146ZM682.24 1147.15C682.479 1152.2 680.223 1156.41 677.202 1156.56 674.181 1156.7 671.538 1152.72 671.299 1147.66 671.06 1142.61 673.316 1138.4 676.337 1138.25 679.358 1138.11 682.001 1142.09 682.24 1147.15ZM747.557 1029.46C747.971 1038.21 744.066 1045.5 738.835 1045.75 733.604 1046 729.029 1039.1 728.615 1030.35 728.201 1021.6 732.107 1014.31 737.337 1014.06 742.568 1013.82 747.144 1020.71 747.557 1029.46Z"></path>
  <path fill="#CC7256" d="M1879.87 1130.49C1879.87 1134.64 1874.72 1137.99 1868.37 1137.99C1862.01 1137.99 1856.87 1134.64 1856.87 1130.49C1856.87 1126.35 1862.01 1122.99 1868.37 1122.99C1874.72 1122.99 1879.87 1126.35 1879.87 1130.49Z"></path>
  <defs>
    <linearGradient id="paint0_linear_192_1963" x1="744.534" x2="744.534" y1="2250.3" y2="2611.63" gradientUnits="userSpaceOnUse">
      <stop offset=".094" stop-color="#8B1A1A"></stop>
      <stop offset="1" stop-color="#D03C3C"></stop>
    </linearGradient>
  </defs>
</svg>
